<svg height="512pt" viewBox="0 0 512 512" width="512pt" xmlns="http://www.w3.org/2000/svg"><path d="m512 256c0 141.386719-114.613281 256-256 256s-256-114.613281-256-256 114.613281-256 256-256 256 114.613281 256 256zm0 0" fill="#36415c"/><path d="m479.351562 223.351562c0 123.351563-100 223.347657-223.351562 223.347657s-223.351562-99.996094-223.351562-223.347657c0-123.355468 100-223.351562 223.351562-223.351562s223.351562 99.996094 223.351562 223.351562zm0 0" fill="#3c4c72"/><path d="m379.335938 361h-246.671876c-34.96875 0-65.730468 19.480469-81.480468 48.59375 46.707031 62.183594 121.0625 102.40625 204.816406 102.40625s158.109375-40.222656 204.816406-102.40625c-15.75-29.113281-46.511718-48.59375-81.480468-48.59375zm0 0" fill="#e6646e"/><path d="m388 475.382812c28.304688-17.070312 53.039062-39.460937 72.816406-65.789062h-72.816406zm0 0" fill="#ffd164"/><path d="m124 475.382812c38.542969 23.242188 83.710938 36.617188 132 36.617188s93.457031-13.375 132-36.617188v-113.96875c-2.855469-.265624-5.742188-.414062-8.664062-.414062h-246.671876c-2.921874 0-5.808593.148438-8.664062.414062zm0 0" fill="#ff8087"/><path d="m327.476562 367.09375v-6.09375h-142.953124v6.09375c0 39.414062 32.066406 71.476562 71.476562 71.476562s71.476562-32.0625 71.476562-71.476562zm0 0" fill="#ffd164"/><path d="m204.523438 245.980469v118.789062c0 28.429688 23.046874 51.476563 51.476562 51.476563s51.476562-23.046875 51.476562-51.476563v-118.789062zm0 0" fill="#b67f5f"/><path d="m204.523438 360.96875c15.96875 6.230469 33.328124 9.660156 51.476562 9.660156s35.507812-3.429687 51.476562-9.660156v-114.988281h-102.953124zm0 0" fill="#a06e50"/><path d="m388.5 257.84375h-30.5v-89.0625h40.304688c10.875 0 19.695312 8.820312 19.695312 19.699219v39.863281c0 16.292969-13.207031 29.5-29.5 29.5zm0 0" fill="#b67f5f"/><path d="m123.5 257.84375h30.5v-89.0625h-40.304688c-10.875 0-19.695312 8.820312-19.695312 19.699219v39.863281c0 16.292969 13.207031 29.5 29.5 29.5zm0 0" fill="#a06e50"/><path d="m256 350.628906c-67.378906 0-122-54.621094-122-122v-91.628906c0-67.378906 54.621094-122 122-122s122 54.621094 122 122v91.628906c0 67.378906-54.621094 122-122 122zm0 0" fill="#cd916e"/><path d="m184 228.628906v-91.628906c0-58.808594 41.613281-107.894531 97-119.429688-8.070312-1.683593-16.429688-2.570312-25-2.570312-67.378906 0-122 54.621094-122 122v91.628906c0 67.378906 54.621094 122 122 122 8.570312 0 16.929688-.890625 25-2.570312-55.386719-11.535156-97-60.621094-97-119.429688zm0 0" fill="#b67f5f"/><path d="m255.609375 0c-75.726563.210938-136.609375 62.597656-136.609375 138.324219v31.027343h15v26.660157h22.933594c5.28125 0 9.566406-4.285157 9.566406-9.570313v-50.214844c0-5.285156 4.285156-9.570312 9.566406-9.570312h159.867188c5.28125 0 9.566406 4.285156 9.566406 9.570312v50.214844c0 5.285156 4.285156 9.570313 9.566406 9.570313h22.933594v-26.660157h15v-32.351562c0-75.671875-61.667969-137.210938-137.390625-137zm0 0" fill="#ffd164"/><path d="m166.457031 137c0-67.453125 49.007813-123.675781 113.28125-134.9375-7.835937-1.375-15.898437-2.0859375-24.128906-2.0625-75.726563.210938-136.609375 62.597656-136.609375 138.324219v31.027343h15v26.65625h22.933594c5.003906 0 9.105468-3.84375 9.527344-8.742187v-50.265625zm0 0" fill="#ffc350"/><path d="m308.664062 162.757812h-105.328124c-44.945313 0-81.378907-36.4375-81.378907-81.378906v-73.109375c0-4.566406 3.703125-8.269531 8.269531-8.269531h178.4375c44.945313 0 81.378907 36.433594 81.378907 81.378906 0 44.941406-36.433594 81.378906-81.378907 81.378906zm0 0" fill="#ffe17d"/><path d="m171.957031 81.378906v-73.109375c0-4.566406 3.703125-8.269531 8.269531-8.269531h-50c-4.566406 0-8.269531 3.703125-8.269531 8.269531v73.109375c0 44.941406 36.433594 81.375 81.378907 81.375h50c-44.945313.003906-81.378907-36.433594-81.378907-81.375zm0 0" fill="#ffd164"/></svg>