<svg height="512pt" viewBox="0 -3 512 512" width="512pt" xmlns="http://www.w3.org/2000/svg"><path d="m174.90625 172.023438h162.019531v161.992187h-162.019531zm0 0" fill="#a0e4a5"/><path d="m10 172.023438h164.90625v161.992187h-164.90625zm0 0" fill="#ff5c7d"/><path d="m336.925781 172.023438h165.074219v161.992187h-165.074219zm0 0" fill="#dfecff"/><path d="m174.90625 10h162.019531v162.023438h-162.019531zm0 0" fill="#dfecff"/><path d="m174.90625 334.015625h162.019531v162.023437h-162.019531zm0 0" fill="#ff5c7d"/><path d="m174.898438 9.996094v162.03125h-164.898438v-107.601563c0-30.058593 24.371094-54.429687 54.429688-54.429687zm0 0" fill="#ff5c7d"/><path d="m174.898438 334.015625v162.019531h-110.46875c-30.058594 0-54.429688-24.371094-54.429688-54.429687v-107.589844zm0 0" fill="#a0e4a5"/><path d="m502 64.425781v107.601563h-165.070312v-162.03125h110.640624c30.058594 0 54.429688 24.371094 54.429688 54.429687zm0 0" fill="#a0e4a5"/><path d="m502 334.015625v107.589844c0 30.058593-24.371094 54.429687-54.429688 54.429687h-110.640624v-162.019531zm0 0" fill="#dfecff"/><path d="m447.570312 0h-383.140624c-35.527344 0-64.429688 28.902344-64.429688 64.429688v377.179687c0 35.527344 28.902344 64.429687 64.429688 64.429687h383.140624c35.527344 0 64.429688-28.902343 64.429688-64.429687v-142.921875c0-5.523438-4.476562-10-10-10s-10 4.476562-10 10v142.921875c0 24.5-19.929688 44.429687-44.429688 44.429687h-383.140624c-24.5 0-44.429688-19.929687-44.429688-44.429687v-377.179687c0-24.5 19.929688-44.429688 44.429688-44.429688h383.140624c24.5 0 44.429688 19.929688 44.429688 44.429688v143.757812c0 5.523438 4.476562 10 10 10s10-4.476562 10-10v-143.757812c0-35.527344-28.902344-64.429688-64.429688-64.429688zm0 0"/><path d="m459.789062 182.023438c5.519532 0 10-4.476563 10-10 0-5.523438-4.480468-10-10-10h-112.863281v-112.792969c0-5.523438-4.476562-10-10-10-5.519531 0-10 4.476562-10 10v112.792969h-142.019531v-112.792969c0-5.523438-4.476562-10-10-10s-10 4.476562-10 10v112.792969h-112.695312c-5.523438 0-10 4.476562-10 10 0 5.523437 4.476562 10 10 10h112.695312v141.992187h-112.695312c-5.523438 0-10 4.476563-10 10s4.476562 10 10 10h112.695312v112.792969c0 5.519531 4.476562 10 10 10s10-4.480469 10-10v-112.792969h142.019531v112.792969c0 5.519531 4.480469 10 10 10 5.523438 0 10-4.480469 10-10v-112.792969h112.863281c5.519532 0 10-4.476563 10-10s-4.480468-10-10-10h-112.863281v-141.992187zm-132.863281 141.992187h-142.019531v-141.992187h142.019531zm0 0"/><path d="m59.480469 295.085938c1.953125 1.953124 4.511719 2.929687 7.070312 2.929687 2.558594 0 5.117188-.976563 7.070313-2.929687l24.507812-24.507813 24.511719 24.507813c1.953125 1.953124 4.511719 2.929687 7.070313 2.929687 2.558593 0 5.117187-.976563 7.070312-2.929687 3.90625-3.902344 3.90625-10.234376 0-14.140626l-24.507812-24.511718 24.507812-24.507813c3.90625-3.90625 3.90625-10.238281 0-14.144531-3.90625-3.902344-10.238281-3.902344-14.144531 0l-24.507813 24.511719-24.507812-24.507813c-3.90625-3.90625-10.238282-3.90625-14.144532 0-3.90625 3.902344-3.902343 10.234375 0 14.140625l24.511719 24.511719-24.511719 24.507812c-3.902343 3.90625-3.902343 10.238282.003907 14.140626zm0 0"/><path d="m295.132812 376.136719c-3.90625-3.90625-10.234374-3.90625-14.144531 0l-24.507812 24.507812-24.507813-24.507812c-3.90625-3.90625-10.238281-3.90625-14.144531 0-3.90625 3.902343-3.902344 10.234375 0 14.140625l24.511719 24.507812-24.511719 24.511719c-3.902344 3.902344-3.902344 10.234375 0 14.140625 1.953125 1.953125 4.511719 2.929688 7.070313 2.929688 2.5625 0 5.121093-.976563 7.074218-2.929688l24.507813-24.507812 24.507812 24.507812c1.953125 1.953125 4.511719 2.929688 7.070313 2.929688s5.121094-.976563 7.074218-2.929688c3.902344-3.902344 3.902344-10.234375 0-14.140625l-24.511718-24.511719 24.511718-24.507812c3.90625-3.90625 3.90625-10.238282 0-14.140625zm0 0"/><path d="m59.480469 133.648438c1.953125 1.953124 4.511719 2.929687 7.070312 2.929687 2.558594 0 5.117188-.976563 7.070313-2.929687l24.507812-24.507813 24.511719 24.507813c1.953125 1.953124 4.511719 2.929687 7.070313 2.929687 2.558593 0 5.117187-.976563 7.070312-2.929687 3.90625-3.90625 3.90625-10.238282 0-14.140626l-24.507812-24.511718 24.507812-24.507813c3.90625-3.90625 3.90625-10.238281 0-14.144531-3.90625-3.902344-10.238281-3.902344-14.144531 0l-24.507813 24.511719-24.507812-24.511719c-3.902344-3.90625-10.234375-3.902344-14.140625 0-3.90625 3.90625-3.90625 10.238281 0 14.140625l24.507812 24.511719-24.507812 24.507812c-3.90625 3.90625-3.90625 10.238282 0 14.144532zm0 0"/><path d="m256.242188 310.421875c30.574218 0 55.445312-24.875 55.445312-55.445313 0-30.574218-24.871094-55.449218-55.445312-55.449218-30.574219 0-55.445313 24.875-55.445313 55.449218 0 30.570313 24.871094 55.445313 55.445313 55.445313zm0-90.894531c19.542968 0 35.445312 15.902344 35.445312 35.449218 0 19.542969-15.902344 35.445313-35.445312 35.445313-19.546876 0-35.445313-15.902344-35.445313-35.445313 0-19.546874 15.898437-35.449218 35.445313-35.449218zm0 0"/><path d="m419.410156 36.359375c-30.570312 0-55.445312 24.871094-55.445312 55.445313 0 30.574218 24.875 55.445312 55.445312 55.445312 30.574219 0 55.445313-24.871094 55.445313-55.445312 0-30.574219-24.871094-55.445313-55.445313-55.445313zm0 90.894531c-19.542968 0-35.445312-15.902344-35.445312-35.449218 0-19.542969 15.902344-35.445313 35.445312-35.445313 19.546875 0 35.445313 15.902344 35.445313 35.445313 0 19.546874-15.898438 35.449218-35.445313 35.449218zm0 0"/><path d="m37.003906 415.328125c0 30.570313 24.875 55.445313 55.445313 55.445313 30.574219 0 55.445312-24.875 55.445312-55.445313 0-30.574219-24.871093-55.445313-55.445312-55.445313-30.570313 0-55.445313 24.871094-55.445313 55.445313zm90.890625 0c0 19.542969-15.898437 35.445313-35.445312 35.445313-19.542969 0-35.445313-15.902344-35.445313-35.445313 0-19.546875 15.902344-35.445313 35.445313-35.445313 19.546875 0 35.445312 15.898438 35.445312 35.445313zm0 0"/><path d="m510.308594 249.425781c-2.976563-4.558593-9.355469-5.777343-13.859375-2.769531-4.53125 3.03125-5.777344 9.339844-2.757813 13.871094 3.023438 4.539062 9.328125 5.769531 13.859375 2.757812 4.539063-3.007812 5.773438-9.339844 2.757813-13.859375zm0 0"/></svg>