<svg id="Capa_1" enable-background="new 0 0 512 512" height="512" viewBox="0 0 512 512" width="512" xmlns="http://www.w3.org/2000/svg"><g><g><path d="m385.099 434.31v-86.652l24.406-7.658 24.405 7.658v86.652l-24.405 7.69z" fill="#8ebac5"/><path d="m433.91 347.66v86.65l-12.205 3.846-12.205-3.846v-86.65l12.205-3.832z" fill="#7ca1b1"/><path d="m483.905 475.501h-148.8c-11.375 0-20.595-9.221-20.595-20.595 0-11.375 9.221-20.595 20.595-20.595h148.8c11.375 0 20.595 9.221 20.595 20.595 0 11.374-9.221 20.595-20.595 20.595z" fill="#678d98"/><path d="m504.5 454.91c0 5.69-2.3 10.83-6.03 14.56s-8.88 6.03-14.57 6.03h-24.4c5.68 0 10.83-2.3 14.56-6.03 3.72-3.73 6.03-8.87 6.03-14.56 0-11.38-9.22-20.6-20.59-20.6h24.4c11.38 0 20.6 9.22 20.6 20.6z" fill="#537983"/><path d="m467.648 347.658h-381.564c-20.353 0-36.852-16.499-36.852-36.852v-237.455c0-20.353 16.499-36.852 36.852-36.852h381.564c20.353 0 36.852 16.499 36.852 36.852v237.456c0 20.352-16.499 36.851-36.852 36.851z" fill="#deecf1"/><path d="m504.5 73.35v237.46c0 20.35-16.5 36.85-36.85 36.85h-24.67c20.35 0 36.85-16.5 36.85-36.85v-237.46c0-20.35-16.5-36.85-36.85-36.85h24.67c20.35 0 36.85 16.5 36.85 36.85z" fill="#a8d3d8"/><path d="m335.116 308.757h-231.3c-8.831 0-15.991-7.159-15.991-15.991v-201.375c0-8.831 7.159-15.991 15.991-15.991h231.3c8.831 0 15.991 7.159 15.991 15.991v201.375c-.001 8.832-7.16 15.991-15.991 15.991z" fill="#62dbfb"/><path d="m351.11 91.39v201.38c0 8.83-7.16 15.99-15.99 15.99h-24.67c8.83 0 15.99-7.16 15.99-15.99v-201.38c0-8.83-7.16-15.99-15.99-15.99h24.67c8.83 0 15.99 7.16 15.99 15.99z" fill="#01d0fb"/><path d="m386.477 123.994h80.084v27.099h-80.084z" fill="#8379c1"/><path d="m321.691 424.554-139.943 9.756-139.943-9.756c0-14.966 12.133-27.099 27.099-27.099h225.687c14.967 0 27.1 12.132 27.1 27.099z" fill="#deecf1"/><path d="m321.69 424.55-11.24 6.45-12.76-6.45c0-14.96-12.13-27.1-27.1-27.1h24c14.97 0 27.1 12.14 27.1 27.1z" fill="#a8d3d8"/><path d="m442.02 123.99h24.54v27.1h-24.54z" fill="#6e61b6"/><path d="m341.697 475.501h-319.898c-7.897 0-14.299-6.402-14.299-14.299v-22.349c0-7.897 6.402-14.299 14.299-14.299h319.898c7.897 0 14.299 6.402 14.299 14.299v22.349c0 7.897-6.402 14.299-14.299 14.299z" fill="#8ebac5"/><path d="m356 438.85v22.35c0 7.9-6.41 14.3-14.3 14.3h-25.22c7.9 0 14.3-6.4 14.3-14.3v-22.35c0-7.89-6.4-14.3-14.3-14.3h25.22c7.89 0 14.3 6.41 14.3 14.3z" fill="#7ca1b1"/><path d="m386.477 181.034h80.084v52.031h-80.084z" fill="#ffd15b"/><path d="m442.02 181.03h24.54v52.03h-24.54z" fill="#feb137"/><g fill="#8379c1"><path d="m386.477 263.005h27.993v27.099h-27.993z"/><path d="m438.568 263.005h27.993v27.099h-27.993z"/></g></g><g><path d="m467.648 355.158c24.456 0 44.352-19.896 44.352-44.352v-237.454c0-24.456-19.896-44.353-44.352-44.353h-381.564c-24.456 0-44.352 19.896-44.352 44.353v237.455c0 24.455 19.896 44.352 44.352 44.352h24.249c4.142 0 7.5-3.357 7.5-7.5s-3.358-7.5-7.5-7.5h-24.249c-16.185 0-29.352-13.167-29.352-29.352v-237.455c0-16.185 13.167-29.353 29.352-29.353h381.564c16.185 0 29.352 13.168 29.352 29.353v237.455c0 16.185-13.167 29.352-29.352 29.352h-321.898c-4.142 0-7.5 3.357-7.5 7.5s3.358 7.5 7.5 7.5h231.849v71.651h-17.743c-3.909-5.875-10.588-9.756-18.158-9.756h-13.335c-3.437-15.483-17.269-27.099-33.771-27.099h-225.687c-16.502 0-30.334 11.616-33.771 27.099h-13.335c-12.02 0-21.799 9.779-21.799 21.799v22.349c0 12.021 9.779 21.8 21.799 21.8h319.898c12.02 0 21.799-9.779 21.799-21.8v-19.392h120.409c7.221 0 13.095 5.875 13.095 13.096s-5.875 13.096-13.095 13.096h-94.238c-4.142 0-7.5 3.357-7.5 7.5s3.358 7.5 7.5 7.5h94.238c15.492 0 28.095-12.604 28.095-28.096s-12.604-28.096-28.095-28.096h-42.495v-71.651h26.238zm-154.949 61.896h-23.199v-12.099c9.75 0 18.996 1.988 23.199 12.099zm-56.616 0v-12.099h18.417v12.099zm-33.417 0v-12.099h18.417v12.099zm-33.418 0v-12.099h18.417v12.099zm-33.417 0v-12.099h18.417v12.099zm-33.417 0v-12.099h18.417v12.099zm-33.418 0v-12.099h18.417v12.099zm-20.091-12.099h5.091v12.099h-23.199c2.951-7.097 9.956-12.099 18.108-12.099zm279.591 56.246c0 3.749-3.05 6.8-6.799 6.8h-319.898c-3.749 0-6.799-3.051-6.799-6.8v-22.349c0-3.749 3.05-6.799 6.799-6.799h319.898c3.749 0 6.799 3.05 6.799 6.799zm77.914-34.391h-33.812v-71.651h33.812z"/><path d="m351.106 181.5c4.142 0 7.5-3.357 7.5-7.5v-82.608c0-12.953-10.538-23.491-23.491-23.491h-231.3c-12.953 0-23.491 10.538-23.491 23.491v201.375c0 12.952 10.538 23.49 23.491 23.49h231.3c12.953 0 23.491-10.538 23.491-23.49v-84.718c0-4.143-3.358-7.5-7.5-7.5s-7.5 3.357-7.5 7.5v84.718c0 4.682-3.809 8.49-8.491 8.49h-231.3c-4.682 0-8.491-3.809-8.491-8.49v-201.375c0-4.682 3.809-8.491 8.491-8.491h231.3c4.682 0 8.491 3.81 8.491 8.491v82.608c0 4.143 3.358 7.5 7.5 7.5z"/><path d="m378.978 151.094c0 4.143 3.358 7.5 7.5 7.5h80.083c4.142 0 7.5-3.357 7.5-7.5v-27.1c0-4.143-3.358-7.5-7.5-7.5h-80.083c-4.142 0-7.5 3.357-7.5 7.5zm15-19.6h65.083v12.1h-65.083z"/><path d="m378.978 233.064c0 4.143 3.358 7.5 7.5 7.5h80.083c4.142 0 7.5-3.357 7.5-7.5v-52.03c0-4.143-3.358-7.5-7.5-7.5h-80.083c-4.142 0-7.5 3.357-7.5 7.5zm15-44.53h65.083v37.03h-65.083z"/><path d="m378.978 290.104c0 4.143 3.358 7.5 7.5 7.5h27.993c4.142 0 7.5-3.357 7.5-7.5v-27.1c0-4.143-3.358-7.5-7.5-7.5h-27.993c-4.142 0-7.5 3.357-7.5 7.5zm15-19.599h12.993v12.1h-12.993z"/><path d="m466.561 255.505h-27.993c-4.142 0-7.5 3.357-7.5 7.5v27.1c0 4.143 3.358 7.5 7.5 7.5h27.993c4.142 0 7.5-3.357 7.5-7.5v-27.1c0-4.143-3.358-7.5-7.5-7.5zm-7.5 27.099h-12.993v-12.1h12.993z"/><path d="m386.478 101.554h30.993c4.142 0 7.5-3.357 7.5-7.5s-3.358-7.5-7.5-7.5h-30.993c-4.142 0-7.5 3.357-7.5 7.5s3.357 7.5 7.5 7.5z"/><path d="m200.462 128.504c-1.607-3.905-5.373-6.427-9.595-6.427-.004 0-.008 0-.012 0-4.227.004-7.992 2.535-9.592 6.448-.023.057-.045.112-.067.17l-47.644 125.094c-1.474 3.87.468 8.203 4.339 9.678 3.871 1.476 8.204-.468 9.678-4.34l10.026-26.324h66.197l9.927 26.304c1.134 3.003 3.987 4.854 7.019 4.854.879 0 1.775-.156 2.646-.485 3.875-1.462 5.832-5.789 4.369-9.665l-47.21-125.1c-.026-.069-.053-.139-.081-.207zm-37.153 89.299 27.537-72.303 27.286 72.303z"/><path d="m277.047 127.7v126.881c0 4.143 3.358 7.5 7.5 7.5s7.5-3.357 7.5-7.5v-126.881c0-4.143-3.358-7.5-7.5-7.5s-7.5 3.358-7.5 7.5z"/></g></g></svg>