<?xml version="1.0" encoding="utf-8"?>
<!-- Svg Vector Icons : http://www.onlinewebfonts.com/icon -->
<!DOCTYPE svg PUBLIC "-//W3C//DTD SVG 1.1//EN" "http://www.w3.org/Graphics/SVG/1.1/DTD/svg11.dtd">
<svg version="1.1" xmlns="http://www.w3.org/2000/svg" xmlns:xlink="http://www.w3.org/1999/xlink" x="0px" y="0px" viewBox="0 0 1000 1000" enable-background="new 0 0 1000 1000" xml:space="preserve">
<metadata> Svg Vector Icons : http://www.onlinewebfonts.com/icon </metadata>
<g><path d="M383.6,899.7c-0.8,6.1-5.4,7.8-10.3,8.6c-21.6,3.8-39.2,16-57.6,26.8c-11.7,6.8-24.4,11.8-36.8,17.5c-1.6,0.7-4.7,1.2-5.3,0.4c-6.4-8.1-13.4-1.5-18.5,0.5c-10.7,4.2-20.2,11.1-30.4,16.7c-5.4,3-10.9,6.2-16.6,8.6c-6.2,2.5-13,3.4-17.9,9c-1.5,1.8-5.3,2.2-8,2.2c-1.9,0-3.8-1.9-5.7-2.9c1-1.5,1.8-3.5,3.2-4.3c5.4-3.3,11.1-6.1,16.6-9.2c8.4-4.7,16.8-9.5,25.2-14.3c1.3-0.7,2.5-1.7,3.8-2c20.2-4.8,37.2-16.5,55.1-26.2c6.6-3.6,12.6-8.7,19.1-13.3c-5.3-7.1-10.8-4.8-15.1-2.7c-16.5,8.3-32.7,17.2-48.9,25.9c-2.5,1.4-4.6,3.8-7.3,4.6c-2.3,0.7-6.5,0.6-7.4-0.8c-1.2-1.9-1.2-6.1,0.2-7.8c7.9-10.2,15.1-21.4,29.8-23.1c4.4-0.5,9.5-1.7,6-8.2c-1.5-2.8-2.7-5.4,0.4-7.6c3.5-2.4,7-5.9,11.8-2.7c4.7,3.2,9.8,4.6,15.1,2.1c4.9-2.2,10.1-4.4,6.4-11.8c-2.3-4.6,0.7-7.1,4.7-9c7.9-3.7,15.6-7.8,23.5-11.4c2.5-1.1,7.1-2.4,8.2-1.3c8,8.6,12.7,0.9,18.4-2.9c2.2-1.5,4.9-2.3,7.4-3.4c5.1,8.4-5.4,8.2-6.1,14.3c1.9,0.4,4.3,1.8,5.8,1.2c11.1-4.7,22-9.8,32.9-15.1c1-0.5,1-3.1,1.5-4.7c-1.3-0.3-2.8-1.1-3.8-0.7c-3.8,1.7-7.5,3.8-12.7,4.2c3.1-3.2,5.7-7.2,9.4-9.4c12.9-7.7,26.1-15,39.4-22.1c2.6-1.4,7.1-2.5,9.2-1.3c5.5,3.4,10.3,2.1,15.3,0c9.8-4.1,19.5-8.3,29.2-12.7c1.5-0.7,2.2-2.8,3.9-5.1c-9-6.1-16,0.8-25.3,3.1c1.5-3.8,1.8-7,3.5-8c6.1-3.8,12.4-7.4,19-10.2c5.2-2.3,11.4-2.5,15.2-9.7c-3.2-0.8-5.7-1.9-8.1-1.8c-18.2,1.1-35.6,3.9-48.2,19.6c-6.5,8-17.1,8.4-26.7,9c-5.2,0.3-7-3.4-5.7-7.8c1.2-4.1,2.7-9.3,5.8-11.3c9.5-6,18.4-14.8,31.7-11.1c2.6,0.7,5.8,0.3,8.4-0.6c13.3-4.7,26.5-9.5,39.6-14.8c4.5-1.8,11.4-3.7,4.2-10.9c-0.4-0.4,2.1-4.9,4.1-6.2c15.7-10.7,31.5-21.1,47.3-31.6c30-20,62.4-35.5,94.6-51.6c19.8-9.9,36.4-24.2,53.6-37.6c3.8-3,6.9-6.9,9.8-10.7c7.2-9.6,5.9-17.1-4.9-22.6c-6.8-3.5-14.5-5.8-22-7c-26.4-4.2-53-7-79.3-11.5c-21.2-3.6-38.6-15.3-48-34.3c-5.3-10.7-7.5-25.1-5.4-36.7c5.8-32,19.1-61,42.2-84.9c23.1-23.9,50.4-41.3,81.8-51.3c19.3-6.1,39.3-4.3,59,0.5c12.5,3.1,24.4,3.1,36.8-2.5c12-5.4,24.1-10.2,34.4-18.6c0.7-0.6,1.6-1.3,2.5-1.5c4-1.2,7.5,7,12,0.2c2.3-3.5,5.9-6.3,8.9-9.3c0.2-0.2,0.9,0.1,2.5,0.2c0.2,3,0.6,6.1,0.6,9.2c0,6.1-2.9,12.2,2.2,18c1.6,1.9,0,6.5,0,9.8c0.1,13,0.9,26.1,0.3,39.1c-0.7,14.1-3.1,28.1-11.1,40.2c-9.8,14.7-22,27.1-36.7,37.1c-4.1,2.7-7.4,3-12.1,1.7c-11-3.1-20.4-8.2-28.3-16.9c-12.2-13.4-26.6-24.1-42.6-32.7c-11.9-6.4-22.8-5.6-34,2.5c-13.9,10-27.5,20-36.2,35.2c-8.9,15.6-10.8,32.2-3.8,48.7c3.6,8.4,12.3,12.6,21,14.2c18.1,3.4,36.4,6.1,54.7,8.3c15.8,1.8,32.2,0.8,47.7,4c21.7,4.4,41.7,13.2,52.5,34.9c4.3,8.7,9.6,17.1,12.7,26.2c3.8,11.2,4.1,22.6-2.1,33.7c-9.5,16.8-21.5,30.8-37,42.6c-24.9,19-52.5,33.3-79.2,49.1c-9.8,5.8-17.9,12.9-24.6,22.2c-4.2,5.8-9.6,11.3-15.7,14.9c-30.2,17.7-60.8,34.6-91.2,51.8c-9.8,5.5-20.6,5-31.3,5.3c-1.5,0-3.9-1.7-4.2-3c-0.3-1.3,1.3-3.7,2.7-4.4c8.2-4.2,16.4-8.2,24.8-12c4.4-2,9-3.6,9.6-11.6c-5.4,1.3-10,1.9-14.2,3.6c-17.6,6.9-35,14.6-52.8,21.1c-11.8,4.3-24.2,6.7-34.9,14c-1.9,1.3-5.7,1-8.3,0.3c-7.7-2-14.2,0.2-20.9,3.8c-12,6.4-24.2,12.5-36.5,18.3c-19.3,9.1-38.9,17.5-56.8,29.4c-4.8,3.2-9.3,6.9-13.8,10.6c-0.8,0.6-0.9,2.9-0.4,3.9c0.5,1,2.5,2.3,3.4,2c6.5-1.9,13.1-3.6,19.2-6.4c8.8-4.1,17-9.4,25.8-13.5c8.5-4.1,16.5-9.4,27.3-6.4c4.2,1.1,9.7-3.5,14.8-4.7c2.2-0.5,4.9,1,7.5,1.6c-0.9,2.5-1.1,6.3-2.8,7.2c-6.7,3.6-13.9,6.4-21,9.2c-3.6,1.4-7.4,2.1-11.1,3.2c-0.1-0.9,0-2-0.3-2.8c-0.4-1.1-1.2-2.1-2-2.9c-0.1-0.1-1.4,0.9-2.2,1.4c0.8,1,1.4,2.2,2.3,3C381.7,899.4,382.7,899.4,383.6,899.7z"/><path d="M599.2,215.7c19.8-27.1,34.9-55.7,56.4-79.4c1.1,0.7,2.3,1.5,3.4,2.2c-7.3,14.7-14.7,29.4-22,44.1c0.9,0.5,1.9,1.1,2.8,1.7c3.3-4.7,7-9.3,9.8-14.3c6.5-11.3,12.1-23.2,19-34.4c18.6-30.1,36.3-60.8,62.3-85.6c1.8-1.7,3.3-3.6,5.3-5c6.2-4.7,11.3-4.6,17.7,0.6c1,0.9,1.8,3.5,1.3,4.6c-1.8,3.9-4.1,7.7-6.5,11.3c-7,10.4-13.9,20.8-21.2,31c-7.7,10.7-11.4,22.4-11.3,35.5c0.1,8-3.4,13.6-11.9,16.6c-0.3-3.3-0.6-5.9-1-9.8c-10.9,15.8-21,30.5-31.2,45.1c-0.3,0.4-1.7,0.1-4.1,0.1c9.7-22.4,27.4-40.4,31.8-64.7c-12.3,5.9-17.5,17.7-24.7,27.5c-7.1,9.6-12,20.9-17.5,31.7c-5.8,11.2-11.6,22.5-16.5,34.2c-4.6,10.8-13.3,20.5-10.9,34.8c12.7-4.9,14.5-20.4,27-25.9c0,2.6,0.4,4.1-0.1,5.2c-13.4,29.6-25.2,59.9-44.9,86.4c-10.9,14.7-18.9,31.6-28.4,47.4c-4.3,7-9.3,13.5-13.9,20.3c-1.6,2.4-3.3,4.7-4.5,7.3c-4.2,9.8-7.2,20.2-12.6,29.3c-5.5,9.3-4.7,19.6-7.5,29.2c-6.5,22.8-13.9,45.3-20.6,68.1c-9.5,32.1-15.8,65-21.1,98.1c-2.6,16.4-3.5,32.8-3.5,49.3c0.1,17.1-18.3,29.4-33.8,23c-1.7-0.7-3.5-2.1-4.3-3.6c-8-14.7-19.9-26.5-31.8-37.5c-10.5-9.7-11.6-20.1-8.4-31.5c2.5-9,1.7-17-0.5-25.5c-3.3-13.1-7-26.3-8.5-39.7c-1-8.9-6.6-14.7-9.7-22.1c-5.3-12.9-10.2-26-14.9-39.1c-7.9-21.9-15.4-43.9-23.2-65.8c-3.9-10.9-9.3-21.3-12.2-32.5c-3.5-13.6-11.5-23.6-21.9-31.8c-9-7-13.2-16.3-12.2-26.6c1.2-12.2-0.4-25,7.2-36.3c4.8-7.1,7.2-15.9,10.6-23.9c2.2-5.2,5.4-8.8,11-5c4.7,3.2,8.4,1.6,11.9-1c9.6-7.2,19.6-1.9,29.5-1.2c10.6,10.8,23.9,18.8,26.5,36.3c3.9,26.8,9.3,53.5,15.3,79.9c5.3,23.2,12.3,45.9,18.5,68.9c1,3.7,1.1,7.7,2.1,11.5c1.5,6,3.1,12,4.9,17.9c0.7,2.3,2.1,4.4,2.9,6.7c1.5,4.2-0.3,11.3,6.1,11.2c2.3-0.1,5-7.3,6.5-11.6c10.3-30.3,20.1-60.8,30.5-91.1c8.7-25.3,18.3-50.2,26.6-75.5c4.8-14.7,6.1-30.5,13.5-44.4c6.7-12.3,13.4-24.7,20.7-36.7c2.2-3.7,5.7-8.8,11.7-3.5c0.6,0.5,4.3-1.4,5.6-3c3.1-3.7,5.5-8,8.4-11.9C593.2,206.4,594,206.6,599.2,215.7z M733.3,67.2c-5,1.2-8.2,0.9-9.3,2.4c-6.7,8.1-13.1,16.5-19.4,24.9c-0.5,0.7,0.2,3.4,0.9,3.7c1.5,0.6,4.1,0.9,5,0C719.4,89.9,727.5,81.1,733.3,67.2z"/><path d="M703.6,24.6c-5.4,7.3-5.8,20.3-17.8,25.8c-2.2,1-5.7,0.6-8-0.5c-1.1-0.5-1.3-4.3-0.8-6.4c1.8-7.5,4.1-14.9,6.2-22.3c0.4-1.4,0.8-2.9,1.4-4.1c3.2-6.1,7.6-8.3,12.8-6.8C702.2,11.9,704.1,15.3,703.6,24.6z"/></g>
</svg>